<svg xmlns:xlink="http://www.w3.org/1999/xlink" width="23.927ex" height="2.676ex" style="vertical-align: -0.671ex;" viewBox="0 -863.1 10301.8 1152.1" role="img" focusable="false" xmlns="http://www.w3.org/2000/svg" aria-labelledby="MathJax-SVG-1-Title">
<title id="MathJax-SVG-1-Title">{\displaystyle -90^{\circ }+\delta &lt;\phi &lt;90^{\circ }-\delta }</title>
<defs aria-hidden="true">
<path stroke-width="1" id="E1-MJMAIN-2212" d="M84 237T84 250T98 270H679Q694 262 694 250T679 230H98Q84 237 84 250Z"></path>
<path stroke-width="1" id="E1-MJMAIN-39" d="M352 287Q304 211 232 211Q154 211 104 270T44 396Q42 412 42 436V444Q42 537 111 606Q171 666 243 666Q245 666 249 666T257 665H261Q273 665 286 663T323 651T370 619T413 560Q456 472 456 334Q456 194 396 97Q361 41 312 10T208 -22Q147 -22 108 7T68 93T121 149Q143 149 158 135T173 96Q173 78 164 65T148 49T135 44L131 43Q131 41 138 37T164 27T206 22H212Q272 22 313 86Q352 142 352 280V287ZM244 248Q292 248 321 297T351 430Q351 508 343 542Q341 552 337 562T323 588T293 615T246 625Q208 625 181 598Q160 576 154 546T147 441Q147 358 152 329T172 282Q197 248 244 248Z"></path>
<path stroke-width="1" id="E1-MJMAIN-30" d="M96 585Q152 666 249 666Q297 666 345 640T423 548Q460 465 460 320Q460 165 417 83Q397 41 362 16T301 -15T250 -22Q224 -22 198 -16T137 16T82 83Q39 165 39 320Q39 494 96 585ZM321 597Q291 629 250 629Q208 629 178 597Q153 571 145 525T137 333Q137 175 145 125T181 46Q209 16 250 16Q290 16 318 46Q347 76 354 130T362 333Q362 478 354 524T321 597Z"></path>
<path stroke-width="1" id="E1-MJMAIN-2218" d="M55 251Q55 328 112 386T249 444T386 388T444 249Q444 171 388 113T250 55Q170 55 113 112T55 251ZM245 403Q188 403 142 361T96 250Q96 183 141 140T250 96Q284 96 313 109T354 135T375 160Q403 197 403 250Q403 313 360 358T245 403Z"></path>
<path stroke-width="1" id="E1-MJMAIN-2B" d="M56 237T56 250T70 270H369V420L370 570Q380 583 389 583Q402 583 409 568V270H707Q722 262 722 250T707 230H409V-68Q401 -82 391 -82H389H387Q375 -82 369 -68V230H70Q56 237 56 250Z"></path>
<path stroke-width="1" id="E1-MJMATHI-3B4" d="M195 609Q195 656 227 686T302 717Q319 716 351 709T407 697T433 690Q451 682 451 662Q451 644 438 628T403 612Q382 612 348 641T288 671T249 657T235 628Q235 584 334 463Q401 379 401 292Q401 169 340 80T205 -10H198Q127 -10 83 36T36 153Q36 286 151 382Q191 413 252 434Q252 435 245 449T230 481T214 521T201 566T195 609ZM112 130Q112 83 136 55T204 27Q233 27 256 51T291 111T309 178T316 232Q316 267 309 298T295 344T269 400L259 396Q215 381 183 342T137 256T118 179T112 130Z"></path>
<path stroke-width="1" id="E1-MJMAIN-3C" d="M694 -11T694 -19T688 -33T678 -40Q671 -40 524 29T234 166L90 235Q83 240 83 250Q83 261 91 266Q664 540 678 540Q681 540 687 534T694 519T687 505Q686 504 417 376L151 250L417 124Q686 -4 687 -5Q694 -11 694 -19Z"></path>
<path stroke-width="1" id="E1-MJMATHI-3D5" d="M409 688Q413 694 421 694H429H442Q448 688 448 686Q448 679 418 563Q411 535 404 504T392 458L388 442Q388 441 397 441T429 435T477 418Q521 397 550 357T579 260T548 151T471 65T374 11T279 -10H275L251 -105Q245 -128 238 -160Q230 -192 227 -198T215 -205H209Q189 -205 189 -198Q189 -193 211 -103L234 -11Q234 -10 226 -10Q221 -10 206 -8T161 6T107 36T62 89T43 171Q43 231 76 284T157 370T254 422T342 441Q347 441 348 445L378 567Q409 686 409 688ZM122 150Q122 116 134 91T167 53T203 35T237 27H244L337 404Q333 404 326 403T297 395T255 379T211 350T170 304Q152 276 137 237Q122 191 122 150ZM500 282Q500 320 484 347T444 385T405 400T381 404H378L332 217L284 29Q284 27 285 27Q293 27 317 33T357 47Q400 66 431 100T475 170T494 234T500 282Z"></path>
</defs>
<g stroke="currentColor" fill="currentColor" stroke-width="0" transform="matrix(1 0 0 -1 0 0)" aria-hidden="true">
 <use xlink:href="#E1-MJMAIN-2212" x="0" y="0"></use>
<g transform="translate(778,0)">
 <use xlink:href="#E1-MJMAIN-39"></use>
 <use xlink:href="#E1-MJMAIN-30" x="500" y="0"></use>
 <use transform="scale(0.707)" xlink:href="#E1-MJMAIN-2218" x="1415" y="583"></use>
</g>
 <use xlink:href="#E1-MJMAIN-2B" x="2455" y="0"></use>
 <use xlink:href="#E1-MJMATHI-3B4" x="3456" y="0"></use>
 <use xlink:href="#E1-MJMAIN-3C" x="4185" y="0"></use>
 <use xlink:href="#E1-MJMATHI-3D5" x="5241" y="0"></use>
 <use xlink:href="#E1-MJMAIN-3C" x="6116" y="0"></use>
<g transform="translate(7172,0)">
 <use xlink:href="#E1-MJMAIN-39"></use>
 <use xlink:href="#E1-MJMAIN-30" x="500" y="0"></use>
 <use transform="scale(0.707)" xlink:href="#E1-MJMAIN-2218" x="1415" y="583"></use>
</g>
 <use xlink:href="#E1-MJMAIN-2212" x="8849" y="0"></use>
 <use xlink:href="#E1-MJMATHI-3B4" x="9850" y="0"></use>
</g>
</svg>