<svg xmlns:xlink="http://www.w3.org/1999/xlink" width="2.58ex" height="2.343ex" style="vertical-align: -0.338ex;" viewBox="0 -863.1 1110.9 1008.6" role="img" focusable="false" xmlns="http://www.w3.org/2000/svg" aria-labelledby="MathJax-SVG-1-Title">
<title id="MathJax-SVG-1-Title">{\displaystyle J^{\star }}</title>
<defs aria-hidden="true">
<path stroke-width="1" id="E1-MJMATHI-4A" d="M447 625Q447 637 354 637H329Q323 642 323 645T325 664Q329 677 335 683H352Q393 681 498 681Q541 681 568 681T605 682T619 682Q633 682 633 672Q633 670 630 658Q626 642 623 640T604 637Q552 637 545 623Q541 610 483 376Q420 128 419 127Q397 64 333 21T195 -22Q137 -22 97 8T57 88Q57 130 80 152T132 174Q177 174 182 130Q182 98 164 80T123 56Q115 54 115 53T122 44Q148 15 197 15Q235 15 271 47T324 130Q328 142 387 380T447 625Z"></path>
<path stroke-width="1" id="E1-MJMAIN-22C6" d="M210 282Q210 284 225 381T241 480Q241 484 245 484Q249 486 251 486Q258 486 260 477T272 406Q275 390 276 380Q290 286 290 282L388 299Q484 314 487 314H488Q497 314 497 302Q497 297 434 266Q416 257 404 251L315 206L361 118Q372 98 383 75T401 40L407 28Q407 16 395 16Q394 16 392 16L390 17L250 159L110 17L108 16Q106 16 105 16Q93 16 93 28L99 40Q105 52 116 75T139 118L185 206L96 251Q6 296 4 300Q3 301 3 302Q3 314 12 314H13Q16 314 112 299L210 282Z"></path>
</defs>
<g stroke="currentColor" fill="currentColor" stroke-width="0" transform="matrix(1 0 0 -1 0 0)" aria-hidden="true">
 <use xlink:href="#E1-MJMATHI-4A" x="0" y="0"></use>
 <use transform="scale(0.707)" xlink:href="#E1-MJMAIN-22C6" x="929" y="583"></use>
</g>
</svg>